<svg xmlns="http://www.w3.org/2000/svg" width="820" height="420" viewBox="0 0 820 420" role="img" aria-label="The search path 8, 3, 6, 7 in a binary search tree" font-family="ui-sans-serif, system-ui, -apple-system, 'Segoe UI', Roboto, Helvetica, Arial, sans-serif">
<title>The search path 8, 3, 6, 7 in a binary search tree</title>
<defs><marker id="arrow-plain" viewBox="0 0 10 10" refX="8" refY="5" markerUnits="userSpaceOnUse" markerWidth="12" markerHeight="12" orient="auto-start-reverse"><path d="M0 0L10 5L0 10z" fill="#64748B"/></marker><marker id="arrow-muted" viewBox="0 0 10 10" refX="8" refY="5" markerUnits="userSpaceOnUse" markerWidth="12" markerHeight="12" orient="auto-start-reverse"><path d="M0 0L10 5L0 10z" fill="#94A3B8"/></marker><marker id="arrow-brand" viewBox="0 0 10 10" refX="8" refY="5" markerUnits="userSpaceOnUse" markerWidth="12" markerHeight="12" orient="auto-start-reverse"><path d="M0 0L10 5L0 10z" fill="#0052CC"/></marker><marker id="arrow-active" viewBox="0 0 10 10" refX="8" refY="5" markerUnits="userSpaceOnUse" markerWidth="12" markerHeight="12" orient="auto-start-reverse"><path d="M0 0L10 5L0 10z" fill="#D97706"/></marker><marker id="arrow-good" viewBox="0 0 10 10" refX="8" refY="5" markerUnits="userSpaceOnUse" markerWidth="12" markerHeight="12" orient="auto-start-reverse"><path d="M0 0L10 5L0 10z" fill="#059669"/></marker><marker id="arrow-bad" viewBox="0 0 10 10" refX="8" refY="5" markerUnits="userSpaceOnUse" markerWidth="12" markerHeight="12" orient="auto-start-reverse"><path d="M0 0L10 5L0 10z" fill="#E11D48"/></marker><marker id="arrow-special" viewBox="0 0 10 10" refX="8" refY="5" markerUnits="userSpaceOnUse" markerWidth="12" markerHeight="12" orient="auto-start-reverse"><path d="M0 0L10 5L0 10z" fill="#7C3AED"/></marker><marker id="arrow-ink" viewBox="0 0 10 10" refX="8" refY="5" markerUnits="userSpaceOnUse" markerWidth="12" markerHeight="12" orient="auto-start-reverse"><path d="M0 0L10 5L0 10z" fill="#0A1633"/></marker></defs>
<rect width="820" height="420" fill="#FFFFFF"/>
<text x="32" y="32" dy="0.35em" font-size="17" font-weight="700" fill="#0A1633" text-anchor="start">Search for 7 in a BST: one comparison per level</text><line x1="379.8" y1="108.7" x2="240.2" y2="169.3" stroke="#D97706" stroke-width="3" stroke-linecap="round"/><line x1="420.2" y1="108.7" x2="559.8" y2="169.3" stroke="#64748B" stroke-width="2" stroke-linecap="round"/><line x1="203.4" y1="192.4" x2="146.6" y2="241.6" stroke="#64748B" stroke-width="2" stroke-linecap="round"/><line x1="236.6" y1="192.4" x2="293.4" y2="241.6" stroke="#D97706" stroke-width="3" stroke-linecap="round"/><line x1="596.6" y1="192.4" x2="653.4" y2="241.6" stroke="#64748B" stroke-width="2" stroke-linecap="round"/><line x1="299" y1="275.1" x2="276" y2="314.9" stroke="#64748B" stroke-width="2" stroke-linecap="round"/><line x1="321" y1="275.1" x2="344" y2="314.9" stroke="#D97706" stroke-width="3" stroke-linecap="round"/><line x1="659" y1="275.1" x2="636" y2="314.9" stroke="#64748B" stroke-width="2" stroke-linecap="round"/><circle cx="400" cy="100" r="22" fill="#FEF3C7" stroke="#D97706" stroke-width="2.25"/><text x="400" y="100" dy="0.35em" font-size="16" font-weight="650" fill="#92400E" text-anchor="middle">8</text><circle cx="220" cy="178" r="22" fill="#FEF3C7" stroke="#D97706" stroke-width="2.25"/><text x="220" y="178" dy="0.35em" font-size="16" font-weight="650" fill="#92400E" text-anchor="middle">3</text><circle cx="580" cy="178" r="22" fill="#FFFFFF" stroke="#94A3B8" stroke-width="1.75"/><text x="580" y="178" dy="0.35em" font-size="16" font-weight="650" fill="#0A1633" text-anchor="middle">10</text><circle cx="130" cy="256" r="22" fill="#FFFFFF" stroke="#94A3B8" stroke-width="1.75"/><text x="130" y="256" dy="0.35em" font-size="16" font-weight="650" fill="#0A1633" text-anchor="middle">1</text><circle cx="310" cy="256" r="22" fill="#FEF3C7" stroke="#D97706" stroke-width="2.25"/><text x="310" y="256" dy="0.35em" font-size="16" font-weight="650" fill="#92400E" text-anchor="middle">6</text><circle cx="670" cy="256" r="22" fill="#FFFFFF" stroke="#94A3B8" stroke-width="1.75"/><text x="670" y="256" dy="0.35em" font-size="16" font-weight="650" fill="#0A1633" text-anchor="middle">14</text><circle cx="265" cy="334" r="22" fill="#FFFFFF" stroke="#94A3B8" stroke-width="1.75"/><text x="265" y="334" dy="0.35em" font-size="16" font-weight="650" fill="#0A1633" text-anchor="middle">4</text><circle cx="355" cy="334" r="22" fill="#D1FAE5" stroke="#059669" stroke-width="2.25"/><text x="355" y="334" dy="0.35em" font-size="16" font-weight="650" fill="#065F46" text-anchor="middle">7</text><circle cx="625" cy="334" r="22" fill="#FFFFFF" stroke="#94A3B8" stroke-width="1.75"/><text x="625" y="334" dy="0.35em" font-size="16" font-weight="650" fill="#0A1633" text-anchor="middle">13</text><rect x="205" y="107.5" width="113.9" height="21" rx="10.5" fill="#FFFFFF" stroke="#FCD34D" stroke-width="1"/><text x="262" y="118" dy="0.35em" font-size="13" font-weight="600" fill="#D97706" text-anchor="middle">7 &lt; 8, go left</text><rect x="285.4" y="194.5" width="121.2" height="21" rx="10.5" fill="#FFFFFF" stroke="#FCD34D" stroke-width="1"/><text x="346" y="205" dy="0.35em" font-size="13" font-weight="600" fill="#D97706" text-anchor="middle">7 &gt; 3, go right</text><rect x="367.4" y="281.5" width="121.2" height="21" rx="10.5" fill="#FFFFFF" stroke="#FCD34D" stroke-width="1"/><text x="428" y="292" dy="0.35em" font-size="13" font-weight="600" fill="#D97706" text-anchor="middle">7 &gt; 6, go right</text><text x="32" y="396" dy="0.35em" font-size="14" font-weight="500" fill="#64748B" text-anchor="start">Each step skips a whole subtree: O(h), which is O(log n) when balanced and O(n) when skewed.</text>
</svg>
