<svg xmlns="http://www.w3.org/2000/svg" width="720" height="440" viewBox="0 0 720 440" role="img" aria-label="Growth of common time complexities from O(1) to O(2^n)" font-family="ui-sans-serif, system-ui, -apple-system, 'Segoe UI', Roboto, Helvetica, Arial, sans-serif">
<title>Growth of common time complexities from O(1) to O(2^n)</title>
<defs><marker id="arrow-plain" viewBox="0 0 10 10" refX="8" refY="5" markerUnits="userSpaceOnUse" markerWidth="12" markerHeight="12" orient="auto-start-reverse"><path d="M0 0L10 5L0 10z" fill="#64748B"/></marker><marker id="arrow-muted" viewBox="0 0 10 10" refX="8" refY="5" markerUnits="userSpaceOnUse" markerWidth="12" markerHeight="12" orient="auto-start-reverse"><path d="M0 0L10 5L0 10z" fill="#94A3B8"/></marker><marker id="arrow-brand" viewBox="0 0 10 10" refX="8" refY="5" markerUnits="userSpaceOnUse" markerWidth="12" markerHeight="12" orient="auto-start-reverse"><path d="M0 0L10 5L0 10z" fill="#0052CC"/></marker><marker id="arrow-active" viewBox="0 0 10 10" refX="8" refY="5" markerUnits="userSpaceOnUse" markerWidth="12" markerHeight="12" orient="auto-start-reverse"><path d="M0 0L10 5L0 10z" fill="#D97706"/></marker><marker id="arrow-good" viewBox="0 0 10 10" refX="8" refY="5" markerUnits="userSpaceOnUse" markerWidth="12" markerHeight="12" orient="auto-start-reverse"><path d="M0 0L10 5L0 10z" fill="#059669"/></marker><marker id="arrow-bad" viewBox="0 0 10 10" refX="8" refY="5" markerUnits="userSpaceOnUse" markerWidth="12" markerHeight="12" orient="auto-start-reverse"><path d="M0 0L10 5L0 10z" fill="#E11D48"/></marker><marker id="arrow-special" viewBox="0 0 10 10" refX="8" refY="5" markerUnits="userSpaceOnUse" markerWidth="12" markerHeight="12" orient="auto-start-reverse"><path d="M0 0L10 5L0 10z" fill="#7C3AED"/></marker><marker id="arrow-ink" viewBox="0 0 10 10" refX="8" refY="5" markerUnits="userSpaceOnUse" markerWidth="12" markerHeight="12" orient="auto-start-reverse"><path d="M0 0L10 5L0 10z" fill="#0A1633"/></marker></defs>
<rect width="720" height="440" fill="#FFFFFF"/>
<text x="32" y="32" dy="0.35em" font-size="17" font-weight="700" fill="#0A1633" text-anchor="start">How the number of steps grows with input size</text><line x1="80" y1="302.5" x2="600" y2="302.5" stroke="#E2E8F0" stroke-width="1" stroke-linecap="round"/><text x="70" y="302.5" dy="0.35em" font-size="12" font-weight="500" fill="#94A3B8" text-anchor="end" font-family="ui-monospace, SFMono-Regular, Menlo, Consolas, 'Liberation Mono', monospace">16</text><line x1="80" y1="225" x2="600" y2="225" stroke="#E2E8F0" stroke-width="1" stroke-linecap="round"/><text x="70" y="225" dy="0.35em" font-size="12" font-weight="500" fill="#94A3B8" text-anchor="end" font-family="ui-monospace, SFMono-Regular, Menlo, Consolas, 'Liberation Mono', monospace">32</text><line x1="80" y1="147.5" x2="600" y2="147.5" stroke="#E2E8F0" stroke-width="1" stroke-linecap="round"/><text x="70" y="147.5" dy="0.35em" font-size="12" font-weight="500" fill="#94A3B8" text-anchor="end" font-family="ui-monospace, SFMono-Regular, Menlo, Consolas, 'Liberation Mono', monospace">48</text><line x1="80" y1="70" x2="600" y2="70" stroke="#E2E8F0" stroke-width="1" stroke-linecap="round"/><text x="70" y="70" dy="0.35em" font-size="12" font-weight="500" fill="#94A3B8" text-anchor="end" font-family="ui-monospace, SFMono-Regular, Menlo, Consolas, 'Liberation Mono', monospace">64</text><line x1="210" y1="380" x2="210" y2="70" stroke="#E2E8F0" stroke-width="1" stroke-linecap="round"/><text x="210" y="396" dy="0.35em" font-size="12" font-weight="500" fill="#94A3B8" text-anchor="middle" font-family="ui-monospace, SFMono-Regular, Menlo, Consolas, 'Liberation Mono', monospace">4</text><line x1="340" y1="380" x2="340" y2="70" stroke="#E2E8F0" stroke-width="1" stroke-linecap="round"/><text x="340" y="396" dy="0.35em" font-size="12" font-weight="500" fill="#94A3B8" text-anchor="middle" font-family="ui-monospace, SFMono-Regular, Menlo, Consolas, 'Liberation Mono', monospace">8</text><line x1="470" y1="380" x2="470" y2="70" stroke="#E2E8F0" stroke-width="1" stroke-linecap="round"/><text x="470" y="396" dy="0.35em" font-size="12" font-weight="500" fill="#94A3B8" text-anchor="middle" font-family="ui-monospace, SFMono-Regular, Menlo, Consolas, 'Liberation Mono', monospace">12</text><line x1="600" y1="380" x2="600" y2="70" stroke="#E2E8F0" stroke-width="1" stroke-linecap="round"/><text x="600" y="396" dy="0.35em" font-size="12" font-weight="500" fill="#94A3B8" text-anchor="middle" font-family="ui-monospace, SFMono-Regular, Menlo, Consolas, 'Liberation Mono', monospace">16</text><text x="70" y="380" dy="0.35em" font-size="12" font-weight="500" fill="#94A3B8" text-anchor="end" font-family="ui-monospace, SFMono-Regular, Menlo, Consolas, 'Liberation Mono', monospace">0</text><line x1="80" y1="380" x2="606" y2="380" stroke="#64748B" stroke-width="1.5" stroke-linecap="round"/><line x1="80" y1="380" x2="80" y2="64" stroke="#64748B" stroke-width="1.5" stroke-linecap="round"/><text x="340" y="420" dy="0.35em" font-size="13" font-weight="500" fill="#64748B" text-anchor="middle">input size (n)</text><text x="30" y="225" dy="0.35em" font-size="13" font-weight="500" fill="#64748B" text-anchor="middle" transform="rotate(-90 30 225)">steps</text><defs><clipPath id="plot"><rect x="80" y="70" width="520" height="310"/></clipPath></defs><polyline points="80,375.2 81.6,375.2 83.3,375.2 84.9,375.2 86.5,375.2 88.1,375.2 89.8,375.2 91.4,375.2 93,375.2 94.6,375.2 96.3,375.2 97.9,375.2 99.5,375.2 101.1,375.2 102.8,375.2 104.4,375.2 106,375.2 107.6,375.2 109.3,375.2 110.9,375.2 112.5,375.2 114.1,375.2 115.8,375.2 117.4,375.2 119,375.2 120.6,375.2 122.3,375.2 123.9,375.2 125.5,375.2 127.1,375.2 128.8,375.2 130.4,375.2 132,375.2 133.6,375.2 135.3,375.2 136.9,375.2 138.5,375.2 140.1,375.2 141.8,375.2 143.4,375.2 145,375.2 146.6,375.2 148.3,375.2 149.9,375.2 151.5,375.2 153.1,375.2 154.8,375.2 156.4,375.2 158,375.2 159.6,375.2 161.2,375.2 162.9,375.2 164.5,375.2 166.1,375.2 167.7,375.2 169.4,375.2 171,375.2 172.6,375.2 174.2,375.2 175.9,375.2 177.5,375.2 179.1,375.2 180.7,375.2 182.4,375.2 184,375.2 185.6,375.2 187.2,375.2 188.9,375.2 190.5,375.2 192.1,375.2 193.7,375.2 195.4,375.2 197,375.2 198.6,375.2 200.2,375.2 201.9,375.2 203.5,375.2 205.1,375.2 206.7,375.2 208.4,375.2 210,375.2 211.6,375.2 213.2,375.2 214.9,375.2 216.5,375.2 218.1,375.2 219.7,375.2 221.4,375.2 223,375.2 224.6,375.2 226.2,375.2 227.9,375.2 229.5,375.2 231.1,375.2 232.7,375.2 234.4,375.2 236,375.2 237.6,375.2 239.2,375.2 240.9,375.2 242.5,375.2 244.1,375.2 245.7,375.2 247.4,375.2 249,375.2 250.6,375.2 252.2,375.2 253.9,375.2 255.5,375.2 257.1,375.2 258.7,375.2 260.4,375.2 262,375.2 263.6,375.2 265.2,375.2 266.9,375.2 268.5,375.2 270.1,375.2 271.7,375.2 273.4,375.2 275,375.2 276.6,375.2 278.2,375.2 279.9,375.2 281.5,375.2 283.1,375.2 284.7,375.2 286.4,375.2 288,375.2 289.6,375.2 291.2,375.2 292.9,375.2 294.5,375.2 296.1,375.2 297.7,375.2 299.4,375.2 301,375.2 302.6,375.2 304.2,375.2 305.9,375.2 307.5,375.2 309.1,375.2 310.7,375.2 312.4,375.2 314,375.2 315.6,375.2 317.2,375.2 318.9,375.2 320.5,375.2 322.1,375.2 323.7,375.2 325.4,375.2 327,375.2 328.6,375.2 330.2,375.2 331.9,375.2 333.5,375.2 335.1,375.2 336.7,375.2 338.4,375.2 340,375.2 341.6,375.2 343.2,375.2 344.9,375.2 346.5,375.2 348.1,375.2 349.7,375.2 351.4,375.2 353,375.2 354.6,375.2 356.2,375.2 357.9,375.2 359.5,375.2 361.1,375.2 362.7,375.2 364.4,375.2 366,375.2 367.6,375.2 369.2,375.2 370.9,375.2 372.5,375.2 374.1,375.2 375.7,375.2 377.4,375.2 379,375.2 380.6,375.2 382.2,375.2 383.9,375.2 385.5,375.2 387.1,375.2 388.8,375.2 390.4,375.2 392,375.2 393.6,375.2 395.3,375.2 396.9,375.2 398.5,375.2 400.1,375.2 401.8,375.2 403.4,375.2 405,375.2 406.6,375.2 408.3,375.2 409.9,375.2 411.5,375.2 413.1,375.2 414.8,375.2 416.4,375.2 418,375.2 419.6,375.2 421.3,375.2 422.9,375.2 424.5,375.2 426.1,375.2 427.8,375.2 429.4,375.2 431,375.2 432.6,375.2 434.3,375.2 435.9,375.2 437.5,375.2 439.1,375.2 440.8,375.2 442.4,375.2 444,375.2 445.6,375.2 447.3,375.2 448.9,375.2 450.5,375.2 452.1,375.2 453.8,375.2 455.4,375.2 457,375.2 458.6,375.2 460.3,375.2 461.9,375.2 463.5,375.2 465.1,375.2 466.8,375.2 468.4,375.2 470,375.2 471.6,375.2 473.3,375.2 474.9,375.2 476.5,375.2 478.1,375.2 479.8,375.2 481.4,375.2 483,375.2 484.6,375.2 486.3,375.2 487.9,375.2 489.5,375.2 491.1,375.2 492.8,375.2 494.4,375.2 496,375.2 497.6,375.2 499.3,375.2 500.9,375.2 502.5,375.2 504.1,375.2 505.8,375.2 507.4,375.2 509,375.2 510.6,375.2 512.3,375.2 513.9,375.2 515.5,375.2 517.1,375.2 518.8,375.2 520.4,375.2 522,375.2 523.6,375.2 525.3,375.2 526.9,375.2 528.5,375.2 530.1,375.2 531.8,375.2 533.4,375.2 535,375.2 536.6,375.2 538.3,375.2 539.9,375.2 541.5,375.2 543.1,375.2 544.8,375.2 546.4,375.2 548,375.2 549.6,375.2 551.3,375.2 552.9,375.2 554.5,375.2 556.1,375.2 557.8,375.2 559.4,375.2 561,375.2 562.6,375.2 564.3,375.2 565.9,375.2 567.5,375.2 569.1,375.2 570.8,375.2 572.4,375.2 574,375.2 575.6,375.2 577.3,375.2 578.9,375.2 580.5,375.2 582.1,375.2 583.8,375.2 585.4,375.2 587,375.2 588.6,375.2 590.3,375.2 591.9,375.2 593.5,375.2 595.1,375.2 596.8,375.2 598.4,375.2 600,375.2" fill="none" stroke="#059669" stroke-width="3" stroke-linejoin="round" stroke-linecap="round" clip-path="url(#plot)"/><polyline points="112.5,380 114.1,379.7 115.8,379.3 117.4,379 119,378.7 120.6,378.4 122.3,378.2 123.9,377.9 125.5,377.6 127.1,377.4 128.8,377.2 130.4,376.9 132,376.7 133.6,376.5 135.3,376.3 136.9,376.1 138.5,375.9 140.1,375.7 141.8,375.5 143.4,375.3 145,375.2 146.6,375 148.3,374.8 149.9,374.7 151.5,374.5 153.1,374.3 154.8,374.2 156.4,374 158,373.9 159.6,373.7 161.2,373.6 162.9,373.5 164.5,373.3 166.1,373.2 167.7,373.1 169.4,372.9 171,372.8 172.6,372.7 174.2,372.6 175.9,372.4 177.5,372.3 179.1,372.2 180.7,372.1 182.4,372 184,371.9 185.6,371.8 187.2,371.7 188.9,371.6 190.5,371.4 192.1,371.3 193.7,371.2 195.4,371.1 197,371 198.6,371 200.2,370.9 201.9,370.8 203.5,370.7 205.1,370.6 206.7,370.5 208.4,370.4 210,370.3 211.6,370.2 213.2,370.1 214.9,370.1 216.5,370 218.1,369.9 219.7,369.8 221.4,369.7 223,369.6 224.6,369.6 226.2,369.5 227.9,369.4 229.5,369.3 231.1,369.3 232.7,369.2 234.4,369.1 236,369 237.6,369 239.2,368.9 240.9,368.8 242.5,368.8 244.1,368.7 245.7,368.6 247.4,368.5 249,368.5 250.6,368.4 252.2,368.3 253.9,368.3 255.5,368.2 257.1,368.2 258.7,368.1 260.4,368 262,368 263.6,367.9 265.2,367.8 266.9,367.8 268.5,367.7 270.1,367.7 271.7,367.6 273.4,367.5 275,367.5 276.6,367.4 278.2,367.4 279.9,367.3 281.5,367.2 283.1,367.2 284.7,367.1 286.4,367.1 288,367 289.6,367 291.2,366.9 292.9,366.9 294.5,366.8 296.1,366.8 297.7,366.7 299.4,366.7 301,366.6 302.6,366.6 304.2,366.5 305.9,366.5 307.5,366.4 309.1,366.4 310.7,366.3 312.4,366.3 314,366.2 315.6,366.2 317.2,366.1 318.9,366.1 320.5,366 322.1,366 323.7,365.9 325.4,365.9 327,365.8 328.6,365.8 330.2,365.7 331.9,365.7 333.5,365.6 335.1,365.6 336.7,365.6 338.4,365.5 340,365.5 341.6,365.4 343.2,365.4 344.9,365.3 346.5,365.3 348.1,365.3 349.7,365.2 351.4,365.2 353,365.1 354.6,365.1 356.2,365 357.9,365 359.5,365 361.1,364.9 362.7,364.9 364.4,364.8 366,364.8 367.6,364.8 369.2,364.7 370.9,364.7 372.5,364.6 374.1,364.6 375.7,364.6 377.4,364.5 379,364.5 380.6,364.5 382.2,364.4 383.9,364.4 385.5,364.3 387.1,364.3 388.8,364.3 390.4,364.2 392,364.2 393.6,364.2 395.3,364.1 396.9,364.1 398.5,364.1 400.1,364 401.8,364 403.4,363.9 405,363.9 406.6,363.9 408.3,363.8 409.9,363.8 411.5,363.8 413.1,363.7 414.8,363.7 416.4,363.7 418,363.6 419.6,363.6 421.3,363.6 422.9,363.5 424.5,363.5 426.1,363.5 427.8,363.4 429.4,363.4 431,363.4 432.6,363.3 434.3,363.3 435.9,363.3 437.5,363.2 439.1,363.2 440.8,363.2 442.4,363.1 444,363.1 445.6,363.1 447.3,363.1 448.9,363 450.5,363 452.1,363 453.8,362.9 455.4,362.9 457,362.9 458.6,362.8 460.3,362.8 461.9,362.8 463.5,362.8 465.1,362.7 466.8,362.7 468.4,362.7 470,362.6 471.6,362.6 473.3,362.6 474.9,362.5 476.5,362.5 478.1,362.5 479.8,362.5 481.4,362.4 483,362.4 484.6,362.4 486.3,362.4 487.9,362.3 489.5,362.3 491.1,362.3 492.8,362.2 494.4,362.2 496,362.2 497.6,362.2 499.3,362.1 500.9,362.1 502.5,362.1 504.1,362 505.8,362 507.4,362 509,362 510.6,361.9 512.3,361.9 513.9,361.9 515.5,361.9 517.1,361.8 518.8,361.8 520.4,361.8 522,361.8 523.6,361.7 525.3,361.7 526.9,361.7 528.5,361.7 530.1,361.6 531.8,361.6 533.4,361.6 535,361.6 536.6,361.5 538.3,361.5 539.9,361.5 541.5,361.5 543.1,361.4 544.8,361.4 546.4,361.4 548,361.4 549.6,361.3 551.3,361.3 552.9,361.3 554.5,361.3 556.1,361.2 557.8,361.2 559.4,361.2 561,361.2 562.6,361.1 564.3,361.1 565.9,361.1 567.5,361.1 569.1,361.1 570.8,361 572.4,361 574,361 575.6,361 577.3,360.9 578.9,360.9 580.5,360.9 582.1,360.9 583.8,360.8 585.4,360.8 587,360.8 588.6,360.8 590.3,360.8 591.9,360.7 593.5,360.7 595.1,360.7 596.8,360.7 598.4,360.6 600,360.6" fill="none" stroke="#0891B2" stroke-width="3" stroke-linejoin="round" stroke-linecap="round" clip-path="url(#plot)"/><polyline points="80,380 81.6,379.8 83.3,379.5 84.9,379.3 86.5,379 88.1,378.8 89.8,378.5 91.4,378.3 93,378.1 94.6,377.8 96.3,377.6 97.9,377.3 99.5,377.1 101.1,376.9 102.8,376.6 104.4,376.4 106,376.1 107.6,375.9 109.3,375.6 110.9,375.4 112.5,375.2 114.1,374.9 115.8,374.7 117.4,374.4 119,374.2 120.6,373.9 122.3,373.7 123.9,373.5 125.5,373.2 127.1,373 128.8,372.7 130.4,372.5 132,372.3 133.6,372 135.3,371.8 136.9,371.5 138.5,371.3 140.1,371 141.8,370.8 143.4,370.6 145,370.3 146.6,370.1 148.3,369.8 149.9,369.6 151.5,369.3 153.1,369.1 154.8,368.9 156.4,368.6 158,368.4 159.6,368.1 161.2,367.9 162.9,367.6 164.5,367.4 166.1,367.2 167.7,366.9 169.4,366.7 171,366.4 172.6,366.2 174.2,366 175.9,365.7 177.5,365.5 179.1,365.2 180.7,365 182.4,364.7 184,364.5 185.6,364.3 187.2,364 188.9,363.8 190.5,363.5 192.1,363.3 193.7,363 195.4,362.8 197,362.6 198.6,362.3 200.2,362.1 201.9,361.8 203.5,361.6 205.1,361.4 206.7,361.1 208.4,360.9 210,360.6 211.6,360.4 213.2,360.1 214.9,359.9 216.5,359.7 218.1,359.4 219.7,359.2 221.4,358.9 223,358.7 224.6,358.4 226.2,358.2 227.9,358 229.5,357.7 231.1,357.5 232.7,357.2 234.4,357 236,356.8 237.6,356.5 239.2,356.3 240.9,356 242.5,355.8 244.1,355.5 245.7,355.3 247.4,355.1 249,354.8 250.6,354.6 252.2,354.3 253.9,354.1 255.5,353.8 257.1,353.6 258.7,353.4 260.4,353.1 262,352.9 263.6,352.6 265.2,352.4 266.9,352.1 268.5,351.9 270.1,351.7 271.7,351.4 273.4,351.2 275,350.9 276.6,350.7 278.2,350.5 279.9,350.2 281.5,350 283.1,349.7 284.7,349.5 286.4,349.2 288,349 289.6,348.8 291.2,348.5 292.9,348.3 294.5,348 296.1,347.8 297.7,347.5 299.4,347.3 301,347.1 302.6,346.8 304.2,346.6 305.9,346.3 307.5,346.1 309.1,345.9 310.7,345.6 312.4,345.4 314,345.1 315.6,344.9 317.2,344.6 318.9,344.4 320.5,344.2 322.1,343.9 323.7,343.7 325.4,343.4 327,343.2 328.6,342.9 330.2,342.7 331.9,342.5 333.5,342.2 335.1,342 336.7,341.7 338.4,341.5 340,341.3 341.6,341 343.2,340.8 344.9,340.5 346.5,340.3 348.1,340 349.7,339.8 351.4,339.6 353,339.3 354.6,339.1 356.2,338.8 357.9,338.6 359.5,338.3 361.1,338.1 362.7,337.9 364.4,337.6 366,337.4 367.6,337.1 369.2,336.9 370.9,336.6 372.5,336.4 374.1,336.2 375.7,335.9 377.4,335.7 379,335.4 380.6,335.2 382.2,335 383.9,334.7 385.5,334.5 387.1,334.2 388.8,334 390.4,333.7 392,333.5 393.6,333.3 395.3,333 396.9,332.8 398.5,332.5 400.1,332.3 401.8,332 403.4,331.8 405,331.6 406.6,331.3 408.3,331.1 409.9,330.8 411.5,330.6 413.1,330.4 414.8,330.1 416.4,329.9 418,329.6 419.6,329.4 421.3,329.1 422.9,328.9 424.5,328.7 426.1,328.4 427.8,328.2 429.4,327.9 431,327.7 432.6,327.4 434.3,327.2 435.9,327 437.5,326.7 439.1,326.5 440.8,326.2 442.4,326 444,325.7 445.6,325.5 447.3,325.3 448.9,325 450.5,324.8 452.1,324.5 453.8,324.3 455.4,324.1 457,323.8 458.6,323.6 460.3,323.3 461.9,323.1 463.5,322.8 465.1,322.6 466.8,322.4 468.4,322.1 470,321.9 471.6,321.6 473.3,321.4 474.9,321.1 476.5,320.9 478.1,320.7 479.8,320.4 481.4,320.2 483,319.9 484.6,319.7 486.3,319.5 487.9,319.2 489.5,319 491.1,318.7 492.8,318.5 494.4,318.2 496,318 497.6,317.8 499.3,317.5 500.9,317.3 502.5,317 504.1,316.8 505.8,316.5 507.4,316.3 509,316.1 510.6,315.8 512.3,315.6 513.9,315.3 515.5,315.1 517.1,314.9 518.8,314.6 520.4,314.4 522,314.1 523.6,313.9 525.3,313.6 526.9,313.4 528.5,313.2 530.1,312.9 531.8,312.7 533.4,312.4 535,312.2 536.6,311.9 538.3,311.7 539.9,311.5 541.5,311.2 543.1,311 544.8,310.7 546.4,310.5 548,310.2 549.6,310 551.3,309.8 552.9,309.5 554.5,309.3 556.1,309 557.8,308.8 559.4,308.6 561,308.3 562.6,308.1 564.3,307.8 565.9,307.6 567.5,307.3 569.1,307.1 570.8,306.9 572.4,306.6 574,306.4 575.6,306.1 577.3,305.9 578.9,305.6 580.5,305.4 582.1,305.2 583.8,304.9 585.4,304.7 587,304.4 588.6,304.2 590.3,304 591.9,303.7 593.5,303.5 595.1,303.2 596.8,303 598.4,302.7 600,302.5" fill="none" stroke="#0052CC" stroke-width="3" stroke-linejoin="round" stroke-linecap="round" clip-path="url(#plot)"/><polyline points="112.5,380 114.1,379.6 115.8,379.3 117.4,378.9 119,378.5 120.6,378.1 122.3,377.6 123.9,377.2 125.5,376.7 127.1,376.2 128.8,375.7 130.4,375.3 132,374.7 133.6,374.2 135.3,373.7 136.9,373.2 138.5,372.6 140.1,372 141.8,371.5 143.4,370.9 145,370.3 146.6,369.7 148.3,369.1 149.9,368.5 151.5,367.9 153.1,367.2 154.8,366.6 156.4,366 158,365.3 159.6,364.7 161.2,364 162.9,363.3 164.5,362.6 166.1,362 167.7,361.3 169.4,360.6 171,359.9 172.6,359.1 174.2,358.4 175.9,357.7 177.5,357 179.1,356.2 180.7,355.5 182.4,354.7 184,354 185.6,353.2 187.2,352.5 188.9,351.7 190.5,350.9 192.1,350.1 193.7,349.4 195.4,348.6 197,347.8 198.6,347 200.2,346.2 201.9,345.4 203.5,344.5 205.1,343.7 206.7,342.9 208.4,342.1 210,341.3 211.6,340.4 213.2,339.6 214.9,338.7 216.5,337.9 218.1,337 219.7,336.2 221.4,335.3 223,334.4 224.6,333.6 226.2,332.7 227.9,331.8 229.5,330.9 231.1,330.1 232.7,329.2 234.4,328.3 236,327.4 237.6,326.5 239.2,325.6 240.9,324.7 242.5,323.8 244.1,322.9 245.7,321.9 247.4,321 249,320.1 250.6,319.2 252.2,318.2 253.9,317.3 255.5,316.4 257.1,315.4 258.7,314.5 260.4,313.5 262,312.6 263.6,311.6 265.2,310.7 266.9,309.7 268.5,308.8 270.1,307.8 271.7,306.8 273.4,305.8 275,304.9 276.6,303.9 278.2,302.9 279.9,301.9 281.5,300.9 283.1,300 284.7,299 286.4,298 288,297 289.6,296 291.2,295 292.9,294 294.5,293 296.1,292 297.7,290.9 299.4,289.9 301,288.9 302.6,287.9 304.2,286.9 305.9,285.8 307.5,284.8 309.1,283.8 310.7,282.7 312.4,281.7 314,280.7 315.6,279.6 317.2,278.6 318.9,277.5 320.5,276.5 322.1,275.5 323.7,274.4 325.4,273.3 327,272.3 328.6,271.2 330.2,270.2 331.9,269.1 333.5,268 335.1,267 336.7,265.9 338.4,264.8 340,263.8 341.6,262.7 343.2,261.6 344.9,260.5 346.5,259.4 348.1,258.3 349.7,257.3 351.4,256.2 353,255.1 354.6,254 356.2,252.9 357.9,251.8 359.5,250.7 361.1,249.6 362.7,248.5 364.4,247.4 366,246.3 367.6,245.2 369.2,244 370.9,242.9 372.5,241.8 374.1,240.7 375.7,239.6 377.4,238.5 379,237.3 380.6,236.2 382.2,235.1 383.9,233.9 385.5,232.8 387.1,231.7 388.8,230.5 390.4,229.4 392,228.3 393.6,227.1 395.3,226 396.9,224.8 398.5,223.7 400.1,222.5 401.8,221.4 403.4,220.2 405,219.1 406.6,217.9 408.3,216.8 409.9,215.6 411.5,214.5 413.1,213.3 414.8,212.1 416.4,211 418,209.8 419.6,208.6 421.3,207.5 422.9,206.3 424.5,205.1 426.1,203.9 427.8,202.8 429.4,201.6 431,200.4 432.6,199.2 434.3,198 435.9,196.9 437.5,195.7 439.1,194.5 440.8,193.3 442.4,192.1 444,190.9 445.6,189.7 447.3,188.5 448.9,187.3 450.5,186.1 452.1,184.9 453.8,183.7 455.4,182.5 457,181.3 458.6,180.1 460.3,178.9 461.9,177.7 463.5,176.5 465.1,175.3 466.8,174.1 468.4,172.8 470,171.6 471.6,170.4 473.3,169.2 474.9,168 476.5,166.7 478.1,165.5 479.8,164.3 481.4,163.1 483,161.8 484.6,160.6 486.3,159.4 487.9,158.1 489.5,156.9 491.1,155.7 492.8,154.4 494.4,153.2 496,152 497.6,150.7 499.3,149.5 500.9,148.2 502.5,147 504.1,145.7 505.8,144.5 507.4,143.2 509,142 510.6,140.7 512.3,139.5 513.9,138.2 515.5,137 517.1,135.7 518.8,134.5 520.4,133.2 522,131.9 523.6,130.7 525.3,129.4 526.9,128.2 528.5,126.9 530.1,125.6 531.8,124.4 533.4,123.1 535,121.8 536.6,120.5 538.3,119.3 539.9,118 541.5,116.7 543.1,115.4 544.8,114.2 546.4,112.9 548,111.6 549.6,110.3 551.3,109 552.9,107.8 554.5,106.5 556.1,105.2 557.8,103.9 559.4,102.6 561,101.3 562.6,100 564.3,98.7 565.9,97.4 567.5,96.1 569.1,94.8 570.8,93.5 572.4,92.2 574,90.9 575.6,89.6 577.3,88.3 578.9,87 580.5,85.7 582.1,84.4 583.8,83.1 585.4,81.8 587,80.5 588.6,79.2 590.3,77.9 591.9,76.6 593.5,75.3 595.1,73.9 596.8,72.6 598.4,71.3 600,70" fill="none" stroke="#7C3AED" stroke-width="3" stroke-linejoin="round" stroke-linecap="round" clip-path="url(#plot)"/><polyline points="80,380 81.6,380 83.3,380 84.9,379.9 86.5,379.8 88.1,379.7 89.8,379.6 91.4,379.4 93,379.2 94.6,379 96.3,378.8 97.9,378.5 99.5,378.3 101.1,378 102.8,377.6 104.4,377.3 106,376.9 107.6,376.5 109.3,376.1 110.9,375.6 112.5,375.2 114.1,374.7 115.8,374.1 117.4,373.6 119,373 120.6,372.4 122.3,371.8 123.9,371.2 125.5,370.5 127.1,369.8 128.8,369.1 130.4,368.4 132,367.6 133.6,366.8 135.3,366 136.9,365.2 138.5,364.3 140.1,363.4 141.8,362.5 143.4,361.6 145,360.6 146.6,359.6 148.3,358.6 149.9,357.6 151.5,356.6 153.1,355.5 154.8,354.4 156.4,353.3 158,352.1 159.6,350.9 161.2,349.7 162.9,348.5 164.5,347.3 166.1,346 167.7,344.7 169.4,343.4 171,342 172.6,340.7 174.2,339.3 175.9,337.8 177.5,336.4 179.1,334.9 180.7,333.5 182.4,331.9 184,330.4 185.6,328.8 187.2,327.3 188.9,325.6 190.5,324 192.1,322.3 193.7,320.7 195.4,319 197,317.2 198.6,315.5 200.2,313.7 201.9,311.9 203.5,310.1 205.1,308.2 206.7,306.3 208.4,304.4 210,302.5 211.6,300.6 213.2,298.6 214.9,296.6 216.5,294.6 218.1,292.5 219.7,290.4 221.4,288.3 223,286.2 224.6,284.1 226.2,281.9 227.9,279.7 229.5,277.5 231.1,275.3 232.7,273 234.4,270.7 236,268.4 237.6,266.1 239.2,263.7 240.9,261.3 242.5,258.9 244.1,256.5 245.7,254 247.4,251.5 249,249 250.6,246.5 252.2,243.9 253.9,241.4 255.5,238.8 257.1,236.1 258.7,233.5 260.4,230.8 262,228.1 263.6,225.4 265.2,222.6 266.9,219.9 268.5,217.1 270.1,214.2 271.7,211.4 273.4,208.5 275,205.6 276.6,202.7 278.2,199.8 279.9,196.8 281.5,193.8 283.1,190.8 284.7,187.8 286.4,184.7 288,181.6 289.6,178.5 291.2,175.4 292.9,172.2 294.5,169 296.1,165.8 297.7,162.6 299.4,159.3 301,156 302.6,152.7 304.2,149.4 305.9,146 307.5,142.7 309.1,139.3 310.7,135.8 312.4,132.4 314,128.9 315.6,125.4 317.2,121.9 318.9,118.3 320.5,114.8 322.1,111.2 323.7,107.5 325.4,103.9 327,100.2 328.6,96.5 330.2,92.8 331.9,89.1 333.5,85.3 335.1,81.5 336.7,77.7 338.4,73.9 340,70 341.6,66.1 343.2,62.2 344.9,58.3 346.5,54.3 348.1,50.3 349.7,46.3 351.4,42.3 353,38.2 354.6,34.1 356.2,30 357.9,25.9 359.5,21.8 361.1,17.6 362.7,13.4 364.4,9.2 366,4.9 367.6,0.6 369.2,-3.7 370.9,-7.5" fill="none" stroke="#D97706" stroke-width="3" stroke-linejoin="round" stroke-linecap="round" clip-path="url(#plot)"/><polyline points="80,375.2 81.6,375 83.3,374.8 84.9,374.6 86.5,374.4 88.1,374.2 89.8,374 91.4,373.8 93,373.6 94.6,373.4 96.3,373.1 97.9,372.9 99.5,372.7 101.1,372.4 102.8,372.1 104.4,371.9 106,371.6 107.6,371.3 109.3,371 110.9,370.6 112.5,370.3 114.1,370 115.8,369.6 117.4,369.3 119,368.9 120.6,368.5 122.3,368.1 123.9,367.7 125.5,367.2 127.1,366.8 128.8,366.3 130.4,365.8 132,365.3 133.6,364.8 135.3,364.3 136.9,363.7 138.5,363.1 140.1,362.5 141.8,361.9 143.4,361.3 145,360.6 146.6,359.9 148.3,359.2 149.9,358.5 151.5,357.7 153.1,357 154.8,356.1 156.4,355.3 158,354.4 159.6,353.5 161.2,352.6 162.9,351.6 164.5,350.6 166.1,349.6 167.7,348.5 169.4,347.4 171,346.3 172.6,345.1 174.2,343.8 175.9,342.6 177.5,341.3 179.1,339.9 180.7,338.5 182.4,337 184,335.5 185.6,333.9 187.2,332.3 188.9,330.6 190.5,328.9 192.1,327.1 193.7,325.2 195.4,323.3 197,321.3 198.6,319.2 200.2,317.1 201.9,314.8 203.5,312.5 205.1,310.2 206.7,307.7 208.4,305.1 210,302.5 211.6,299.8 213.2,296.9 214.9,294 216.5,291 218.1,287.8 219.7,284.6 221.4,281.2 223,277.7 224.6,274.1 226.2,270.4 227.9,266.5 229.5,262.5 231.1,258.4 232.7,254.1 234.4,249.7 236,245.1 237.6,240.3 239.2,235.4 240.9,230.3 242.5,225 244.1,219.5 245.7,213.9 247.4,208 249,202 250.6,195.7 252.2,189.2 253.9,182.4 255.5,175.5 257.1,168.3 258.7,160.8 260.4,153.1 262,145.1 263.6,136.8 265.2,128.2 266.9,119.3 268.5,110.1 270.1,100.6 271.7,90.8 273.4,80.6 275,70 276.6,59.1 278.2,47.8 279.9,36 281.5,23.9 283.1,11.3 284.7,-1.7 286.4,-7.5" fill="none" stroke="#E11D48" stroke-width="3" stroke-linejoin="round" stroke-linecap="round" clip-path="url(#plot)"/><text x="608" y="379.2" dy="0.35em" font-size="14" font-weight="700" fill="#059669" text-anchor="start">O(1)</text><text x="608" y="356.6" dy="0.35em" font-size="14" font-weight="700" fill="#0891B2" text-anchor="start">O(log n)</text><text x="608" y="302.5" dy="0.35em" font-size="14" font-weight="700" fill="#0052CC" text-anchor="start">O(n)</text><text x="608" y="76" dy="0.35em" font-size="14" font-weight="700" fill="#7C3AED" text-anchor="start">O(n log n)</text><text x="348" y="58" dy="0.35em" font-size="14" font-weight="700" fill="#D97706" text-anchor="start">O(n²)</text><text x="267" y="58" dy="0.35em" font-size="14" font-weight="700" fill="#E11D48" text-anchor="end">O(2ⁿ)</text>
</svg>
