<svg xmlns="http://www.w3.org/2000/svg" width="780" height="330" viewBox="0 0 780 330" role="img" aria-label="Inserting the node 25 between 20 and 30 in a linked list" font-family="ui-sans-serif, system-ui, -apple-system, 'Segoe UI', Roboto, Helvetica, Arial, sans-serif">
<title>Inserting the node 25 between 20 and 30 in a linked list</title>
<defs><marker id="arrow-plain" viewBox="0 0 10 10" refX="8" refY="5" markerUnits="userSpaceOnUse" markerWidth="12" markerHeight="12" orient="auto-start-reverse"><path d="M0 0L10 5L0 10z" fill="#64748B"/></marker><marker id="arrow-muted" viewBox="0 0 10 10" refX="8" refY="5" markerUnits="userSpaceOnUse" markerWidth="12" markerHeight="12" orient="auto-start-reverse"><path d="M0 0L10 5L0 10z" fill="#94A3B8"/></marker><marker id="arrow-brand" viewBox="0 0 10 10" refX="8" refY="5" markerUnits="userSpaceOnUse" markerWidth="12" markerHeight="12" orient="auto-start-reverse"><path d="M0 0L10 5L0 10z" fill="#0052CC"/></marker><marker id="arrow-active" viewBox="0 0 10 10" refX="8" refY="5" markerUnits="userSpaceOnUse" markerWidth="12" markerHeight="12" orient="auto-start-reverse"><path d="M0 0L10 5L0 10z" fill="#D97706"/></marker><marker id="arrow-good" viewBox="0 0 10 10" refX="8" refY="5" markerUnits="userSpaceOnUse" markerWidth="12" markerHeight="12" orient="auto-start-reverse"><path d="M0 0L10 5L0 10z" fill="#059669"/></marker><marker id="arrow-bad" viewBox="0 0 10 10" refX="8" refY="5" markerUnits="userSpaceOnUse" markerWidth="12" markerHeight="12" orient="auto-start-reverse"><path d="M0 0L10 5L0 10z" fill="#E11D48"/></marker><marker id="arrow-special" viewBox="0 0 10 10" refX="8" refY="5" markerUnits="userSpaceOnUse" markerWidth="12" markerHeight="12" orient="auto-start-reverse"><path d="M0 0L10 5L0 10z" fill="#7C3AED"/></marker><marker id="arrow-ink" viewBox="0 0 10 10" refX="8" refY="5" markerUnits="userSpaceOnUse" markerWidth="12" markerHeight="12" orient="auto-start-reverse"><path d="M0 0L10 5L0 10z" fill="#0A1633"/></marker></defs>
<rect width="780" height="330" fill="#FFFFFF"/>
<text x="32" y="32" dy="0.35em" font-size="17" font-weight="700" fill="#0A1633" text-anchor="start">Insert 25 after 20: two pointer changes</text><text x="60" y="105" dy="0.35em" font-size="14" font-weight="700" fill="#0052CC" text-anchor="middle">head</text><line x1="82" y1="105" x2="114" y2="105" stroke="#0052CC" stroke-width="2" stroke-linecap="round" marker-end="url(#arrow-brand)"/><rect x="120" y="80" width="104" height="50" rx="8" fill="#FFFFFF" stroke="#94A3B8" stroke-width="1.5"/><line x1="184" y1="80" x2="184" y2="130" stroke="#94A3B8" stroke-width="1.5" stroke-linecap="round"/><text x="152" y="105" dy="0.35em" font-size="18" font-weight="700" fill="#0A1633" text-anchor="middle" font-family="ui-monospace, SFMono-Regular, Menlo, Consolas, 'Liberation Mono', monospace">10</text><circle cx="204" cy="105" r="4.5" fill="#0A1633" stroke="#0A1633" stroke-width="1"/><rect x="300" y="80" width="104" height="50" rx="8" fill="#E8F0FF" stroke="#0052CC" stroke-width="2"/><line x1="364" y1="80" x2="364" y2="130" stroke="#0052CC" stroke-width="1.5" stroke-linecap="round"/><text x="332" y="105" dy="0.35em" font-size="18" font-weight="700" fill="#003A91" text-anchor="middle" font-family="ui-monospace, SFMono-Regular, Menlo, Consolas, 'Liberation Mono', monospace">20</text><circle cx="384" cy="105" r="4.5" fill="#0A1633" stroke="#0A1633" stroke-width="1"/><rect x="480" y="80" width="104" height="50" rx="8" fill="#FFFFFF" stroke="#94A3B8" stroke-width="1.5"/><line x1="544" y1="80" x2="544" y2="130" stroke="#94A3B8" stroke-width="1.5" stroke-linecap="round"/><text x="512" y="105" dy="0.35em" font-size="18" font-weight="700" fill="#0A1633" text-anchor="middle" font-family="ui-monospace, SFMono-Regular, Menlo, Consolas, 'Liberation Mono', monospace">30</text><circle cx="564" cy="105" r="4.5" fill="#0A1633" stroke="#0A1633" stroke-width="1"/><rect x="390" y="210" width="104" height="50" rx="8" fill="#D1FAE5" stroke="#059669" stroke-width="2"/><line x1="454" y1="210" x2="454" y2="260" stroke="#059669" stroke-width="1.5" stroke-linecap="round"/><text x="422" y="235" dy="0.35em" font-size="18" font-weight="700" fill="#065F46" text-anchor="middle" font-family="ui-monospace, SFMono-Regular, Menlo, Consolas, 'Liberation Mono', monospace">25</text><circle cx="474" cy="235" r="4.5" fill="#0A1633" stroke="#0A1633" stroke-width="1"/><line x1="204" y1="105" x2="296" y2="105" stroke="#0A1633" stroke-width="2" stroke-linecap="round" marker-end="url(#arrow-ink)"/><line x1="384" y1="105" x2="476" y2="105" stroke="#E11D48" stroke-width="2" stroke-linecap="round" stroke-dasharray="6 5" marker-end="url(#arrow-bad)"/><rect x="392.4" y="81" width="79.2" height="20" rx="10" fill="#FFFFFF" stroke="#FFFFFF" stroke-width="0"/><text x="432" y="91" dy="0.35em" font-size="12" font-weight="600" fill="#E11D48" text-anchor="middle">✗ old link</text><line x1="564" y1="105" x2="648" y2="105" stroke="#0A1633" stroke-width="2" stroke-linecap="round" marker-end="url(#arrow-ink)"/><text x="682" y="105" dy="0.35em" font-size="14" font-weight="700" fill="#64748B" text-anchor="middle" font-family="ui-monospace, SFMono-Regular, Menlo, Consolas, 'Liberation Mono', monospace">NULL</text><path d="M474 235 C534 235, 532 190, 532 136" fill="none" stroke="#059669" stroke-width="2.5" stroke-linecap="round" stroke-linejoin="round" marker-end="url(#arrow-good)"/><rect x="535.7" y="203.5" width="208.6" height="21" rx="10.5" fill="#FFFFFF" stroke="#FFFFFF" stroke-width="0"/><text x="640" y="214" dy="0.35em" font-size="13" font-weight="600" fill="#059669" text-anchor="middle">① newNode-&gt;next = cur-&gt;next</text><path d="M384 109 C384 170, 422 170, 422 204" fill="none" stroke="#059669" stroke-width="2.5" stroke-linecap="round" stroke-linejoin="round" marker-end="url(#arrow-good)"/><rect x="217.6" y="167.5" width="164.9" height="21" rx="10.5" fill="#FFFFFF" stroke="#FFFFFF" stroke-width="0"/><text x="300" y="178" dy="0.35em" font-size="13" font-weight="600" fill="#059669" text-anchor="middle">② cur-&gt;next = newNode</text><text x="32" y="304" dy="0.35em" font-size="14" font-weight="500" fill="#64748B" text-anchor="start">Do ① before ②. If you change cur-&gt;next first, you lose the link to 30 and the rest of the list.</text>
</svg>
